<svg xmlns="http://www.w3.org/2000/svg" viewBox="0 0 64 64">
  <rect width="64" height="64" rx="18" fill="#173f2a"/>
  <g fill="#f2efc4">
    <ellipse cx="32" cy="17" rx="6.4" ry="11.2"/>
    <ellipse cx="42.4" cy="24.6" rx="6.4" ry="11.2" transform="rotate(72 42.4 24.6)"/>
    <ellipse cx="38.4" cy="36.8" rx="6.4" ry="11.2" transform="rotate(144 38.4 36.8)"/>
    <ellipse cx="25.6" cy="36.8" rx="6.4" ry="11.2" transform="rotate(-144 25.6 36.8)"/>
    <ellipse cx="21.6" cy="24.6" rx="6.4" ry="11.2" transform="rotate(-72 21.6 24.6)"/>
  </g>
  <circle cx="32" cy="28" r="7" fill="#7b3327"/>
  <circle cx="32" cy="28" r="2.9" fill="#d7b53f"/>
  <path d="M33.6 39c3 3.6 4.6 8 4.4 13.6" fill="none" stroke="#b8cf78" stroke-width="3.4" stroke-linecap="round"/>
  <path d="M37 46.6c5-6.4 11-7 15-5.4-2.2 6.6-7.2 10.4-14 10.2Z" fill="#b8cf78"/>
</svg>
